<svg xmlns="http://www.w3.org/2000/svg" viewBox="0 0 50 60"><defs><style>.cls-1{fill:#801b17;}</style></defs><g id="Layer_5" data-name="Layer 5"><path class="cls-1" d="M48,47.85C41.1,42,41.84,25.18,41.84,25.18,39.6,8.43,25.08,9.1,25.08,9.1S10.47,8.43,8.22,25.18C8.22,25.18,9,42,2,47.85A1.8,1.8,0,0,0,1.57,50c.63,1.15,2.77.94,2.77.94l20.74,0,20.61,0s2.13.21,2.75-.94A1.8,1.8,0,0,0,48,47.85Z"/><path class="cls-1" d="M25,5.75a18.64,18.64,0,0,1,7,1.28A7,7,0,0,0,18,7,18.63,18.63,0,0,1,25,5.75Z"/><path class="cls-1" d="M16.86,54.65a8.88,8.88,0,0,0,16.29,0Z"/></g></svg>