<svg xmlns="http://www.w3.org/2000/svg" viewBox="0 0 47 60"><defs><style>.cls-1{fill:#801b17;}</style></defs><g id="Layer_6" data-name="Layer 6"><path class="cls-1" d="M8.87,42.32h.9l8.12-1.88a2.81,2.81,0,0,1,.65-.07h.61l.38,0,13.36,1.78a2.89,2.89,0,0,1,2.49,3l-.05.81a2.88,2.88,0,0,1-2.67,2.7l-10.21.72-.78.81,1.39.8a2.91,2.91,0,0,0,1.85.35l10.31-1.53a2.86,2.86,0,0,0,1.31-.54l5.83-4.4a2.88,2.88,0,0,1,3.77.27h0A2.88,2.88,0,0,1,46,49.34l-7.32,6.73a2.86,2.86,0,0,1-1.42.71L20.35,59.9h-1L9.51,56.55C8.23,56.11,5,55.07,5.18,53.72l3.69-11.4"/><rect class="cls-1" x="0.03" y="42.31" width="13.49" height="13.49" rx="0.94"/></g><g id="Layer_7" data-name="Layer 7"><path class="cls-1" d="M16.35,9.28H32.58A3.24,3.24,0,0,0,33,7.81a3.67,3.67,0,0,0-3.83-3.49,4.43,4.43,0,0,0-.9.11,5.21,5.21,0,0,0-4.95-3.26A5.51,5.51,0,0,0,19.6,2.54,5.76,5.76,0,0,0,14.76.1c-3,0-5.4,2-5.55,4.52-.11,0-.21,0-.32,0A3.22,3.22,0,0,0,5.62,7.74a3.14,3.14,0,0,0,1.93,2.87V16.9a1.94,1.94,0,0,0,3.88,0V12.34a4.83,4.83,0,0,0,.86.07A4.28,4.28,0,0,0,16.35,10Z"/><path class="cls-1" d="M13.88,11.46H12.77a3.55,3.55,0,0,1,.49.68A7.64,7.64,0,0,1,13.88,11.46Z"/><path class="cls-1" d="M18,11.46a5.14,5.14,0,0,1-1.68,1.92,4.87,4.87,0,0,1-2.67,1.07v3.14a3.22,3.22,0,0,1-3,3.22v11.6H32.58V11.46Z"/><rect class="cls-1" x="10.63" y="34.59" width="21.96" height="3.39"/><path class="cls-1" d="M32.58,18h2s2.25.6,2.26,2.41v3.26a4.88,4.88,0,0,1-4.29,4.17c-3.9.55,0,4.51,0,4.51s8.11-.81,8.63-8.59S38.1,13.65,35.28,13.59a29,29,0,0,1-3.45-.19Z"/></g></svg>