<svg xmlns="http://www.w3.org/2000/svg" viewBox="0 0 60 45"><defs><style>.cls-1{fill:#801b17;}</style></defs><g id="Layer_4" data-name="Layer 4"><rect class="cls-1" x="16.3" y="36.15" width="26.88" height="8.01" rx="1.05"/><rect class="cls-1" x="22.94" y="6.29" width="13.61" height="16.31" rx="6.26"/><path class="cls-1" d="M28.09,25.34h3.33c5.29,0,11.76,5.12,11.76,9.72v3.11c0,4.6-6.46,3.83-11.75,3.83H28.09c-5.28,0-11.79,1.07-11.79-3.53v-3.8C16.3,30.07,22.81,25.34,28.09,25.34Z"/><rect class="cls-1" x="39.31" y="0.91" width="13.61" height="16.31" rx="6.26"/><rect class="cls-1" x="6.77" y="0.91" width="13.61" height="16.31" rx="6.26"/><path class="cls-1" d="M13.44,37.14a14.57,14.57,0,0,1,9.84-13.78A13.33,13.33,0,0,0,15.12,20H11.8C6.51,20,0,24.7,0,29.3v8.35a1.14,1.14,0,0,0,1.14,1.14h12.3Z"/><path class="cls-1" d="M46.3,37.14a14.6,14.6,0,0,0-10-13.78A13.72,13.72,0,0,1,44.58,20H48c5.38,0,12,4.74,12,9.34v8.35a1.15,1.15,0,0,1-1.17,1.14H46.3Z"/></g></svg>