<svg xmlns="http://www.w3.org/2000/svg" viewBox="0 0 60 60"><defs><style>.cls-1{fill:#801b17;}</style></defs><g id="Layer_3" data-name="Layer 3"><path class="cls-1" d="M55.59,22.91A26.55,26.55,0,0,1,8.28,45.25L5.34,47.06A30,30,0,0,0,59.91,32.49,28.94,28.94,0,0,0,58.36,21a1,1,0,0,0-1.44-.5l-.48.31A1.93,1.93,0,0,0,55.59,22.91Z"/><path class="cls-1" d="M3.56,27.64a26.56,26.56,0,0,1,48-13.15.87.87,0,0,0,1.16.24l1.46-.89a.88.88,0,0,0,.26-1.25A30,30,0,0,0,1.31,38.74a1.66,1.66,0,0,0,2.46.92l.64-.39a.86.86,0,0,0,.36-1A26.71,26.71,0,0,1,3.56,27.64Z"/><path class="cls-1" d="M6.89,55.76,5,46.69a1.68,1.68,0,0,1,2-2l9.1,1.8a1.68,1.68,0,0,1,.87,2.83L9.74,56.6A1.69,1.69,0,0,1,6.89,55.76Z"/><path class="cls-1" d="M53.82,5.18l1.76,9.11a1.68,1.68,0,0,1-2,2L44.51,14.3a1.69,1.69,0,0,1-.83-2.85L51,4.3A1.68,1.68,0,0,1,53.82,5.18Z"/><path class="cls-1" d="M30,14.78A15.22,15.22,0,1,0,45.23,30,15.23,15.23,0,0,0,30,14.78Zm6.92,21.95a2.67,2.67,0,0,1-3.78.19l-5-4.5a2.67,2.67,0,0,1-.86-2.21c0-.07,0-.14,0-.2V22.63a2.68,2.68,0,1,1,5.36,0v6.62L36.75,33A2.67,2.67,0,0,1,36.93,36.73Z"/></g></svg>